<svg width="18" height="15" fill="none" xmlns="http://www.w3.org/2000/svg"><path d="M14.4 1.875v7.5H3.6v-7.5h10.8zM14.85 0H3.15C2.405 0 1.8.63 1.8 1.406v8.438c0 .776.605 1.406 1.35 1.406h11.7c.745 0 1.35-.63 1.35-1.406V1.406C16.2.63 15.595 0 14.85 0zm2.813 12.188h-6.708a.167.167 0 00-.166.149.911.911 0 01-.889.788H8.1a.911.911 0 01-.889-.788.174.174 0 00-.166-.15H.338A.346.346 0 000 12.54v1.055C0 14.37.605 15 1.35 15h15.3c.745 0 1.35-.63 1.35-1.406v-1.055a.346.346 0 00-.337-.351z" fill="#162668"/></svg>