<svg width="18" height="18" fill="none" xmlns="http://www.w3.org/2000/svg"><path d="M15.25 11.273v5.762c0 .535-.335.965-.75.965h-3.626c-.206 0-.375-.217-.375-.483v-4.503c0-.265-.168-.483-.375-.483h-2.25c-.206 0-.375.218-.375.483v4.503c0 .266-.169.483-.375.483H3.499c-.416 0-.75-.43-.75-.965v-5.762c0-.145.05-.282.137-.374l5.876-6.225c.137-.144.337-.144.478 0l5.875 6.225a.56.56 0 01.135.374zm2.613-2.449l-2.613-2.77V.484c0-.265-.17-.482-.375-.482h-1.75c-.207 0-.376.217-.376.483v2.919L9.952.44C9.4-.147 8.6-.147 8.046.44L.136 8.824c-.16.169-.182.475-.05.68l.797 1.246c.13.205.368.233.528.065l7.35-7.79c.138-.144.338-.144.479 0l7.35 7.79c.16.168.397.14.529-.065l.797-1.246c.13-.21.106-.511-.053-.68z" fill="#162668"/></svg>