<svg width="20" height="13" fill="none" xmlns="http://www.w3.org/2000/svg"><path d="M18.331 5.814h-1.664v-1.5c0-.828-.747-1.5-1.667-1.5H9.444l-2.222-2H1.667C.747.814 0 1.486 0 2.314v9c0 .828.746 1.5 1.667 1.5h13.889c.282 0 .56-.065.807-.188.248-.123.456-.301.606-.517l2.776-4c.692-.997-.106-2.295-1.414-2.295zm-16.456-3.5h4.657l2.222 2h6.038a.22.22 0 01.147.055c.04.035.061.083.061.132v1.313H5.278c-.287 0-.57.067-.82.194a1.6 1.6 0 00-.607.531L1.667 9.797V2.5c0-.024.005-.049.016-.071a.187.187 0 01.045-.061.229.229 0 01.147-.055zm13.68 9H2.5l2.682-4h13.151l-2.777 4z" fill="#162668"/></svg>